# xmcd
#
# Track frame offsets: 
#        150
#        13122
#        26795
#        40795
#        54545
#        67680
#        80765
#        94600
#        108822
#        123107
#        135982
#        147592
#        160525
#        174292
#        188440
#        203085
#
# Disc length: 2897 seconds
#
# Revision: 3
# Processed by: cddbd v1.5.2PL0 Copyright (c) Steve Scherf et al.
# Submitted via: ExactAudioCopyFreeDBPlugin 1.0
#
DISCID=c10b4f10
DTITLE=Charley Patton - Complete Recordings, 1929-1934
DYEAR=2002
DGENRE=Blues
TTITLE0=Some of These Days I'll Be Gone (outtake)
TTITLE1=Elder Green Blues (outtake)
TTITLE2=Jim Lee, Part 1
TTITLE3=Jim Lee, Part 2
TTITLE4=Mean Black Cat Blues
TTITLE5=Jesus is A-Dying (Bed Maker)
TTITLE6=Elder Green Blues (take 2)
TTITLE7=When Your Way Gets Dark
TTITLE8=Some of These Days I'll Be Gone (take 2)
TTITLE9=Heart Like Railwood Steel
TTITLE10=Circle Round the Moon
TTITLE11=You're Gonna Need Somebody When You Die
TTITLE12=Henry Sims - Be True, Be True Blues (ft Charley Patton on gui
TTITLE12=tar)
TTITLE13=Henry Sims - Farrell Blues (ft Charley Patton on guitar)
TTITLE14=Henry Sims - Tell Me Man Blues (ft Charley Patton on guitar)
TTITLE15=Henry Sims - Come Back Corrina (ft Charley Patton on guitar)
EXTD=
EXTT0=
EXTT1=
EXTT2=
EXTT3=
EXTT4=
EXTT5=
EXTT6=
EXTT7=
EXTT8=
EXTT9=
EXTT10=
EXTT11=
EXTT12=
EXTT13=
EXTT14=
EXTT15=
PLAYORDER=
